# 3ds Max Wavefront OBJ Exporter v0.97b - (c)2007 guruware
# File Created: 18.08.2018 18:32:06

mtllib Frogtie_degueu.mtl

#
# object Box001
#

v  0.4349 0.0000 7.8322
v  0.4349 0.0000 -11.5521
v  17.6089 0.0000 -11.5521
v  17.6089 0.0000 7.8322
v  0.6476 44.1914 7.5920
v  17.3962 44.1914 7.5920
v  17.3962 44.1914 -11.3119
v  0.6476 44.1914 -11.3119
v  16.1978 21.5197 6.2394
v  1.8460 21.5197 6.2394
v  16.1978 21.5197 -9.9594
v  1.8460 21.5197 -9.9594
v  18.9923 36.1559 9.3935
v  -0.9485 36.1559 9.3935
v  18.9923 36.1559 -13.1134
v  -0.9485 36.1559 -13.1134
# 16 vertices

vn 0.0000 -1.0000 -0.0000
vn 0.0000 1.0000 -0.0000
vn 0.0000 0.0738 0.9973
vn 0.9979 0.0654 -0.0000
vn 0.0000 0.0738 -0.9973
vn -0.9979 0.0654 -0.0000
vn 0.0000 -0.2107 0.9776
vn 0.9823 -0.1875 -0.0000
vn 0.0000 -0.2107 -0.9776
vn -0.9823 -0.1875 -0.0000
vn 0.0000 0.2188 0.9758
vn 0.9808 0.1948 -0.0000
vn 0.0000 0.2188 -0.9758
vn -0.9808 0.1948 -0.0000
# 14 vertex normals

vt 1.0000 0.0000 0.0000
vt 1.0000 1.0000 0.0000
vt 0.0000 1.0000 0.0000
vt 0.0000 0.0000 0.0000
# 4 texture coords

g Box001
usemtl wire_154154229
s 2
f 1/1/1 2/2/1 3/3/1 4/4/1 
s 4
f 5/4/2 6/1/2 7/2/2 8/3/2 
s 8
f 1/4/3 4/1/3 9/2/3 10/3/3 
s 16
f 4/4/4 3/1/4 11/2/4 9/3/4 
s 32
f 3/4/5 2/1/5 12/2/5 11/3/5 
s 64
f 2/4/6 1/1/6 10/2/6 12/3/6 
s off
f 10/3/7 9/2/7 13/1/7 14/4/7 
f 9/3/8 11/2/8 15/2/8 13/1/8 
f 11/3/9 12/2/9 16/3/9 15/2/9 
f 12/3/10 10/2/10 14/4/10 16/3/10 
f 14/4/11 13/1/11 6/1/11 5/4/11 
f 13/1/12 15/2/12 7/2/12 6/1/12 
f 15/2/13 16/3/13 8/3/13 7/2/13 
f 16/3/14 14/4/14 5/4/14 8/3/14 
# 14 polygons

#
# object Box002
#

v  -1.8809 -0.0198 -6.7881
v  6.2121 -1.1180 -14.3386
v  11.5293 5.7157 -9.6334
v  3.4363 6.8139 -2.0829
v  -16.8697 25.2332 -26.5266
v  -11.5526 32.0669 -21.8214
v  -3.4596 30.9687 -29.3720
v  -8.7768 24.1350 -34.0772
# 8 vertices

vn 0.4236 -0.7137 0.5578
vn -0.4236 0.7137 -0.5578
vn -0.7276 0.0987 0.6788
vn 0.5396 0.6935 0.4775
vn 0.7276 -0.0987 -0.6788
vn -0.5396 -0.6935 -0.4775
# 6 vertex normals

vt 1.0000 0.0000 0.0000
vt 1.0000 1.0000 0.0000
vt 0.0000 1.0000 0.0000
vt 0.0000 0.0000 0.0000
# 4 texture coords

g Box002
usemtl wire_154154229
s 2
f 17/5/15 18/6/15 19/7/15 20/8/15 
s 4
f 21/8/16 22/5/16 23/6/16 24/7/16 
s 8
f 17/8/17 20/5/17 22/6/17 21/7/17 
s 16
f 20/8/18 19/5/18 23/6/18 22/7/18 
s 32
f 19/8/19 18/5/19 24/6/19 23/7/19 
s 64
f 18/8/20 17/5/20 21/6/20 24/7/20 
# 6 polygons

#
# object Box004
#

v  -17.0695 3.2011 -12.1360
v  -10.9678 -0.0406 -16.9334
v  -5.8458 2.6426 -12.2317
v  -11.9475 5.8843 -7.4344
v  -16.0302 26.5697 -26.6049
v  -10.9082 29.2529 -21.9033
v  -4.8064 26.0112 -26.7006
v  -9.9284 23.3280 -31.4022
# 8 vertices

vn -0.0378 -0.8496 0.5260
vn 0.0378 0.8496 -0.5260
vn -0.7254 0.3854 0.5703
vn 0.6873 0.3600 0.6309
vn 0.7254 -0.3854 -0.5703
vn -0.6873 -0.3600 -0.6309
# 6 vertex normals

vt 1.0000 0.0000 0.0000
vt 1.0000 1.0000 0.0000
vt 0.0000 1.0000 0.0000
vt 0.0000 0.0000 0.0000
# 4 texture coords

g Box004
usemtl wire_154154229
s 2
f 25/9/21 26/10/21 27/11/21 28/12/21 
s 4
f 29/12/22 30/9/22 31/10/22 32/11/22 
s 8
f 25/12/23 28/9/23 30/10/23 29/11/23 
s 16
f 28/12/24 27/9/24 31/10/24 30/11/24 
s 32
f 27/12/25 26/9/25 32/10/25 31/11/25 
s 64
f 26/12/26 25/9/26 29/10/26 32/11/26 
# 6 polygons

#
# object Box006
#

v  -14.8917 2.0639 -8.7696
v  -8.7899 -1.1778 -13.5669
v  -9.8435 4.2438 -18.5706
v  -15.9454 7.4855 -13.7733
v  -21.9602 -3.8924 -13.7350
v  -23.0138 1.5292 -18.7386
v  -16.9120 -1.7125 -23.5359
v  -15.8584 -7.1341 -18.5322
# 8 vertices

vn 0.6737 0.5677 0.4732
vn -0.6737 -0.5677 -0.4732
vn -0.7254 0.3854 0.5703
vn -0.1414 0.7275 -0.6714
vn 0.7254 -0.3854 -0.5703
vn 0.1414 -0.7275 0.6714
# 6 vertex normals

vt 1.0000 0.0000 0.0000
vt 1.0000 1.0000 0.0000
vt 0.0000 1.0000 0.0000
vt 0.0000 0.0000 0.0000
# 4 texture coords

g Box006
usemtl wire_154154229
s 2
f 33/13/27 34/14/27 35/15/27 36/16/27 
s 4
f 37/16/28 38/13/28 39/14/28 40/15/28 
s 8
f 33/16/29 36/13/29 38/14/29 37/15/29 
s 16
f 36/16/30 35/13/30 39/14/30 38/15/30 
s 32
f 35/16/31 34/13/31 40/14/31 39/15/31 
s 64
f 34/16/32 33/13/32 37/14/32 40/15/32 
# 6 polygons

#
# object Box007
#

v  -17.0695 3.2011 8.7732
v  -10.9678 -0.0406 13.5705
v  -5.8458 2.6426 8.8689
v  -11.9475 5.8843 4.0716
v  -16.0302 26.5697 23.2420
v  -10.9082 29.2529 18.5404
v  -4.8064 26.0112 23.3377
v  -9.9284 23.3280 28.0393
# 8 vertices

vn -0.0378 -0.8496 -0.5260
vn 0.0378 0.8496 0.5260
vn -0.7254 0.3854 -0.5703
vn 0.6873 0.3600 -0.6309
vn 0.7254 -0.3854 0.5703
vn -0.6873 -0.3600 0.6309
# 6 vertex normals

vt 1.0000 0.0000 0.0000
vt 1.0000 1.0000 0.0000
vt 0.0000 1.0000 0.0000
vt 0.0000 0.0000 0.0000
# 4 texture coords

g Box007
usemtl wire_154154229
s 2
f 44/20/33 43/19/33 42/18/33 41/17/33 
s 4
f 48/19/34 47/18/34 46/17/34 45/20/34 
s 8
f 45/19/35 46/18/35 44/17/35 41/20/35 
s 16
f 46/19/36 47/18/36 43/17/36 44/20/36 
s 32
f 47/19/37 48/18/37 42/17/37 43/20/37 
s 64
f 48/19/38 45/18/38 41/17/38 42/20/38 
# 6 polygons

#
# object Box008
#

v  -14.8917 2.0639 5.4068
v  -8.7899 -1.1778 10.2041
v  -9.8435 4.2438 15.2077
v  -15.9454 7.4855 10.4104
v  -21.9602 -3.8924 10.3721
v  -23.0138 1.5292 15.3757
v  -16.9120 -1.7125 20.1730
v  -15.8584 -7.1341 15.1694
# 8 vertices

vn 0.6737 0.5677 -0.4732
vn -0.6737 -0.5677 0.4732
vn -0.7254 0.3854 -0.5703
vn -0.1414 0.7275 0.6714
vn 0.7254 -0.3854 0.5703
vn 0.1414 -0.7275 -0.6714
# 6 vertex normals

vt 1.0000 0.0000 0.0000
vt 1.0000 1.0000 0.0000
vt 0.0000 1.0000 0.0000
vt 0.0000 0.0000 0.0000
# 4 texture coords

g Box008
usemtl wire_154154229
s 2
f 52/24/39 51/23/39 50/22/39 49/21/39 
s 4
f 56/23/40 55/22/40 54/21/40 53/24/40 
s 8
f 53/23/41 54/22/41 52/21/41 49/24/41 
s 16
f 54/23/42 55/22/42 51/21/42 52/24/42 
s 32
f 55/23/43 56/22/43 50/21/43 51/24/43 
s 64
f 56/23/44 53/22/44 49/21/44 50/24/44 
# 6 polygons

#
# object Box009
#

v  -1.8809 -0.0198 3.4089
v  6.2121 -1.1180 10.9594
v  11.5293 5.7157 6.2542
v  3.4363 6.8139 -1.2963
v  -16.8697 25.2332 23.1474
v  -11.5526 32.0669 18.4422
v  -3.4596 30.9687 25.9928
v  -8.7768 24.1350 30.6980
# 8 vertices

vn 0.4236 -0.7137 -0.5578
vn -0.4236 0.7137 0.5578
vn -0.7276 0.0987 -0.6788
vn 0.5396 0.6935 -0.4775
vn 0.7276 -0.0987 0.6788
vn -0.5396 -0.6935 0.4775
# 6 vertex normals

vt 1.0000 0.0000 0.0000
vt 1.0000 1.0000 0.0000
vt 0.0000 1.0000 0.0000
vt 0.0000 0.0000 0.0000
# 4 texture coords

g Box009
usemtl wire_154154229
s 2
f 60/28/45 59/27/45 58/26/45 57/25/45 
s 4
f 64/27/46 63/26/46 62/25/46 61/28/46 
s 8
f 61/27/47 62/26/47 60/25/47 57/28/47 
s 16
f 62/27/48 63/26/48 59/25/48 60/28/48 
s 32
f 63/27/49 64/26/49 58/25/49 59/28/49 
s 64
f 64/27/50 61/26/50 57/25/50 58/28/50 
# 6 polygons

#
# object Box010
#

v  18.5684 18.7083 -25.2924
v  23.0938 18.3727 -22.1263
v  19.3680 15.4188 -17.1140
v  14.8426 15.7544 -20.2801
v  12.4817 46.0683 -13.6927
v  8.7560 43.1144 -8.6804
v  13.2813 42.7788 -5.5144
v  17.0071 45.7327 -10.5267
# 8 vertices

vn 0.2007 -0.9019 -0.3824
vn -0.2007 0.9019 0.3824
vn -0.8179 0.0606 -0.5722
vn -0.5393 -0.4276 0.7255
vn 0.8179 -0.0606 0.5722
vn 0.5393 0.4276 -0.7255
# 6 vertex normals

vt 1.0000 0.0000 0.0000
vt 1.0000 1.0000 0.0000
vt 0.0000 1.0000 0.0000
vt 0.0000 0.0000 0.0000
# 4 texture coords

g Box010
usemtl wire_154154229
s 2
f 65/29/51 66/30/51 67/31/51 68/32/51 
s 4
f 69/32/52 70/29/52 71/30/52 72/31/52 
s 8
f 65/32/53 68/29/53 70/30/53 69/31/53 
s 16
f 68/32/54 67/29/54 71/30/54 70/31/54 
s 32
f 67/32/55 66/29/55 72/30/55 71/31/55 
s 64
f 66/32/56 65/29/56 69/30/56 72/31/56 
# 6 polygons

#
# object Box011
#

v  21.8157 19.7995 -22.7049
v  22.0798 14.2782 -22.4600
v  15.2395 13.9921 -21.5337
v  14.9754 19.5134 -21.7786
v  26.2135 21.4738 10.2888
v  19.3732 21.1877 11.2151
v  19.6373 15.6663 11.4601
v  26.4777 15.9524 10.5338
# 8 vertices

vn -0.1320 -0.0502 -0.9900
vn 0.1320 0.0502 0.9900
vn -0.0477 0.9979 -0.0443
vn -0.9901 -0.0414 0.1341
vn 0.0477 -0.9979 0.0443
vn 0.9901 0.0414 -0.1341
# 6 vertex normals

vt 1.0000 0.0000 0.0000
vt 1.0000 1.0000 0.0000
vt 0.0000 1.0000 0.0000
vt 0.0000 0.0000 0.0000
# 4 texture coords

g Box011
usemtl wire_154154229
s 2
f 73/33/57 74/34/57 75/35/57 76/36/57 
s 4
f 77/36/58 78/33/58 79/34/58 80/35/58 
s 8
f 73/36/59 76/33/59 78/34/59 77/35/59 
s 16
f 76/36/60 75/33/60 79/34/60 78/35/60 
s 32
f 75/36/61 74/33/61 80/34/61 79/35/61 
s 64
f 74/36/62 73/33/62 77/34/62 80/35/62 
# 6 polygons

#
# object Box012
#

v  19.1534 19.9964 22.5444
v  22.0824 15.4220 21.4907
v  16.2564 12.0492 19.9378
v  13.3273 16.6237 20.9915
v  22.2482 29.3140 -9.3043
v  16.4221 25.9413 -10.8571
v  19.3511 21.3668 -11.9108
v  25.1772 24.7395 -10.3580
# 8 vertices

vn -0.0929 -0.2796 0.9556
vn 0.0929 0.2796 -0.9556
vn -0.5294 0.8267 0.1904
vn -0.8433 -0.4882 -0.2248
vn 0.5294 -0.8267 -0.1904
vn 0.8433 0.4882 0.2248
# 6 vertex normals

vt 1.0000 0.0000 0.0000
vt 1.0000 1.0000 0.0000
vt 0.0000 1.0000 0.0000
vt 0.0000 0.0000 0.0000
# 4 texture coords

g Box012
usemtl wire_154154229
s 2
f 84/40/63 83/39/63 82/38/63 81/37/63 
s 4
f 88/39/64 87/38/64 86/37/64 85/40/64 
s 8
f 85/39/65 86/38/65 84/37/65 81/40/65 
s 16
f 86/39/66 87/38/66 83/37/66 84/40/66 
s 32
f 87/39/67 88/38/67 82/37/67 83/40/67 
s 64
f 88/39/68 85/38/68 81/37/68 82/40/68 
# 6 polygons

#
# object Box013
#

v  18.5684 18.7083 23.3651
v  23.0938 18.3727 20.1990
v  19.3680 15.4188 15.1867
v  14.8426 15.7544 18.3528
v  12.4817 46.0683 11.7654
v  8.7560 43.1144 6.7531
v  13.2813 42.7788 3.5871
v  17.0071 45.7327 8.5994
# 8 vertices

vn 0.2007 -0.9019 0.3824
vn -0.2007 0.9019 -0.3824
vn -0.8179 0.0606 0.5722
vn -0.5393 -0.4276 -0.7255
vn 0.8179 -0.0606 -0.5722
vn 0.5393 0.4276 0.7255
# 6 vertex normals

vt 1.0000 0.0000 0.0000
vt 1.0000 1.0000 0.0000
vt 0.0000 1.0000 0.0000
vt 0.0000 0.0000 0.0000
# 4 texture coords

g Box013
usemtl wire_154154229
s 2
f 92/44/69 91/43/69 90/42/69 89/41/69 
s 4
f 96/43/70 95/42/70 94/41/70 93/44/70 
s 8
f 93/43/71 94/42/71 92/41/71 89/44/71 
s 16
f 94/43/72 95/42/72 91/41/72 92/44/72 
s 32
f 95/43/73 96/42/73 90/41/73 91/44/73 
s 64
f 96/43/74 93/42/74 89/41/74 90/44/74 
# 6 polygons

#
# object Box014
#

v  13.5357 43.0235 -5.7525
v  13.5357 43.0235 2.0325
v  4.5082 43.0235 2.0325
v  4.5082 43.0235 -5.7525
v  15.4910 68.4023 -8.8079
v  -0.6922 68.4023 -8.8079
v  -1.0053 68.4023 5.6880
v  15.8041 68.4023 5.6880
v  3.6274 50.6943 -4.8347
v  11.1714 50.6943 -4.8347
v  3.7338 50.9373 1.6012
v  11.0650 50.9373 1.6012
v  -0.1913 53.7747 -8.1059
v  14.9901 53.7747 -8.1059
v  -0.1913 53.7747 4.9860
v  14.9901 53.7747 4.9860
v  -1.0054 57.8794 -8.8079
v  15.8041 57.8794 -8.8079
v  -1.0054 57.8794 5.6880
v  15.8041 57.8794 5.6880
# 20 vertices

vn 0.0000 -1.0000 -0.0000
vn 0.0000 1.0000 -0.0000
vn 0.0000 0.1547 -0.9880
vn -0.9942 -0.1072 0.0082
vn -0.9952 -0.0974 -0.0000
vn -0.9944 -0.1053 0.0065
vn -0.9931 -0.1165 0.0159
vn -0.0000 0.0712 0.9975
vn 0.9550 0.2964 0.0018
vn 0.9556 0.2945 0.0000
vn 0.9551 0.2961 0.0015
vn 0.9545 0.2982 0.0035
vn 0.0000 -0.8117 -0.5840
vn -0.6070 -0.7946 0.0101
vn -0.0000 -0.8421 0.5393
vn 0.6070 -0.7946 0.0101
vn 0.0000 -0.2184 -0.9759
vn -0.9809 -0.1945 -0.0000
vn -0.0000 -0.2184 0.9759
vn 0.9809 -0.1945 0.0000
vn 0.0000 -0.0000 -1.0000
vn -0.9999 0.0149 -0.0083
vn -0.0000 -0.0000 1.0000
vn 0.9999 0.0149 -0.0083
# 24 vertex normals

vt 1.0000 0.0000 0.0000
vt 1.0000 1.0000 0.0000
vt 0.0000 1.0000 0.0000
vt 0.0000 0.0000 0.0000
# 4 texture coords

g Box014
usemtl wire_154154229
s 2
f 97/45/75 98/46/75 99/47/75 100/48/75 
s 4
f 101/48/76 102/45/76 103/46/76 104/47/76 
s 8
f 97/48/77 100/45/77 105/46/77 106/47/77 
s 16
f 100/48/78 99/45/79 107/46/80 105/47/81 
s 32
f 99/48/82 98/45/82 108/46/82 107/47/82 
s 64
f 98/48/83 97/45/84 106/46/85 108/47/86 
s off
f 106/47/87 105/46/87 109/45/87 110/48/87 
f 105/47/88 107/46/88 111/46/88 109/45/88 
f 107/47/89 108/46/89 112/47/89 111/46/89 
f 108/47/90 106/46/90 110/48/90 112/47/90 
f 110/48/91 109/45/91 113/45/91 114/48/91 
f 109/45/92 111/46/92 115/46/92 113/45/92 
f 111/46/93 112/47/93 116/47/93 115/46/93 
f 112/47/94 110/48/94 114/48/94 116/47/94 
f 114/48/95 113/45/95 102/45/95 101/48/95 
f 113/45/96 115/46/96 103/46/96 102/45/96 
f 115/46/97 116/47/97 104/47/97 103/46/97 
f 116/47/98 114/48/98 101/48/98 104/47/98 
# 18 polygons

